<svg width="33" height="32" viewBox="0 0 33 32" fill="none" xmlns="http://www.w3.org/2000/svg">
<circle cx="16.3334" cy="16" r="15.5" stroke="#8749B4"/>
<path d="M21.664 11.2854L21.6646 11.2854C21.7602 11.2853 21.8535 11.3012 21.9384 11.3307C22.0233 11.3603 22.0956 11.4019 22.1527 11.45C22.2096 11.4979 22.2492 11.5501 22.2741 11.6008L22.7228 11.3802L22.2741 11.6008C22.2988 11.651 22.3097 11.7009 22.3097 11.7485V11.7493C22.3097 11.9303 22.1069 12.2131 21.664 12.2131C21.222 12.2131 21.0184 11.9289 21.0184 11.7493C21.0184 11.5696 21.222 11.2854 21.664 11.2854ZM25.5584 12.7519L25.5584 12.7519L25.5587 12.7565C25.6226 13.7116 25.6214 14.6606 25.6201 15.6355C25.6199 15.7709 25.6198 15.9067 25.6198 16.0432C25.6198 16.1964 25.62 16.3488 25.6203 16.5005C25.6219 17.4586 25.6235 18.3905 25.5588 19.3288L25.5587 19.3288L25.5584 19.3345C25.4891 20.5381 25.1748 21.5271 24.1931 22.3531C23.1973 23.1908 21.9705 23.4734 20.4861 23.5339L20.4828 23.5341C19.3388 23.5882 18.2021 23.5872 17.0441 23.5861C16.8832 23.586 16.722 23.5858 16.5602 23.5858C16.3987 23.5858 16.2377 23.586 16.0771 23.5861C14.9207 23.5872 13.7837 23.5882 12.6375 23.534L12.6342 23.5339C11.1497 23.4734 9.92537 23.1927 8.9273 22.3531C7.94786 21.529 7.63123 20.5379 7.56195 19.3345L7.56197 19.3345L7.56166 19.3299C7.49778 18.3747 7.499 17.4241 7.50024 16.4502C7.50042 16.315 7.50059 16.1794 7.50059 16.0432C7.50059 15.907 7.50042 15.7714 7.50024 15.6363C7.499 14.6627 7.49778 13.7134 7.56166 12.7564L7.56168 12.7564L7.56195 12.7519C7.63124 11.5483 7.9456 10.5593 8.9273 9.73336C9.92307 8.89561 11.1499 8.61299 12.6342 8.5525L12.6342 8.55251L12.6375 8.55236C13.7816 8.4982 14.9183 8.49924 16.0763 8.5003C16.2371 8.50045 16.3984 8.5006 16.5602 8.5006C16.7216 8.5006 16.8826 8.50045 17.0432 8.5003C18.1996 8.49924 19.3367 8.4982 20.4829 8.55236V8.55237L20.4861 8.5525C21.9707 8.613 23.195 8.89368 24.1931 9.73336C25.1725 10.5574 25.4891 11.5486 25.5584 12.7519ZM24.4664 21.0031L24.4672 21.0014C24.6231 20.6713 24.7186 20.2594 24.7811 19.8384C24.8445 19.4107 24.8783 18.9408 24.8959 18.4775C24.9212 17.8109 24.9133 17.1276 24.907 16.5872C24.9047 16.3825 24.9025 16.1983 24.9025 16.0432C24.9025 15.8877 24.9047 15.7028 24.9071 15.4973C24.9133 14.957 24.9212 14.2742 24.8962 13.6081C24.8788 13.1446 24.8452 12.6745 24.7822 12.2468C24.7201 11.8257 24.6251 11.4138 24.47 11.0838L24.4688 11.0813C24.2621 10.6477 24.0064 10.32 23.6178 9.99298C23.2302 9.66468 22.8482 9.45838 22.3597 9.29352L22.3576 9.29284C21.6478 9.0567 20.5132 8.97696 19.4432 8.94853C18.6578 8.92765 17.8572 8.93422 17.2162 8.93947C16.9698 8.94149 16.747 8.94332 16.5578 8.94332C16.3686 8.94332 16.1458 8.94149 15.8994 8.93947C15.2584 8.93422 14.4577 8.92765 13.6724 8.94853C12.6024 8.97696 11.4678 9.0567 10.758 9.29284L10.7579 9.29284L10.7559 9.29352C10.2647 9.45928 9.88677 9.668 9.49985 9.99122C9.10888 10.3178 8.85314 10.6485 8.64677 11.0813L8.64676 11.0813L8.64559 11.0838C8.4905 11.4138 8.3955 11.8257 8.33341 12.2468C8.27034 12.6745 8.23677 13.1446 8.21937 13.6081C8.19436 14.2742 8.20227 14.957 8.20852 15.4973C8.2109 15.7028 8.21304 15.8877 8.21304 16.0432C8.21304 16.1987 8.2109 16.3836 8.20852 16.5891C8.20227 17.1292 8.19436 17.8117 8.21937 18.4776C8.23677 18.9409 8.27034 19.4109 8.33341 19.8388C8.3955 20.26 8.49049 20.672 8.64544 21.0023L8.64543 21.0023L8.64677 21.0051C8.85351 21.4387 9.10922 21.7664 9.49782 22.0935C9.88539 22.4218 10.2674 22.628 10.7559 22.7929L10.758 22.7936C11.4678 23.0297 12.6024 23.1095 13.6724 23.1379C14.4577 23.1588 15.2584 23.1522 15.8994 23.1469C16.1458 23.1449 16.3686 23.1431 16.5578 23.1431C16.7465 23.1431 16.9684 23.1449 17.2138 23.1469C17.855 23.1522 18.6562 23.1587 19.4421 23.1376C20.5116 23.109 21.6458 23.0287 22.3559 22.7913L22.3573 22.7909C22.8469 22.6257 23.2256 22.4193 23.6141 22.0926C24.0046 21.7662 24.2602 21.4357 24.4664 21.0031ZM12.1524 16.0432C12.1524 14.113 14.0349 12.4163 16.5578 12.4163C19.0806 12.4163 20.9631 14.113 20.9631 16.0432C20.9631 17.9734 19.0806 19.6702 16.5578 19.6702C14.0349 19.6702 12.1524 17.9734 12.1524 16.0432ZM12.8697 16.0432C12.8697 17.8737 14.6106 19.2254 16.5578 19.2254C18.505 19.2254 20.2459 17.8737 20.2459 16.0432C20.2459 14.2127 18.505 12.861 16.5578 12.861C14.6106 12.861 12.8697 14.2127 12.8697 16.0432Z" fill="#8749B4" stroke="#8749B4"/>
</svg>
