<svg width="29" height="20" viewBox="0 0 29 20" fill="none" xmlns="http://www.w3.org/2000/svg">
<path d="M25.9304 5.11363C25.9482 5.32673 25.9482 5.53988 25.9482 5.75297C25.9482 12.2528 20.1762 19.7421 9.62657 19.7421C6.37644 19.7421 3.35722 18.9352 0.817505 17.5349C1.27929 17.5805 1.72325 17.5957 2.2028 17.5957C4.88454 17.5957 7.35325 16.8194 9.32464 15.4951C6.80269 15.4494 4.68921 14.0338 3.96103 12.0854C4.31627 12.131 4.67145 12.1614 5.04445 12.1614C5.55948 12.1614 6.07456 12.1005 6.55406 11.994C3.92556 11.5373 1.95411 9.55848 1.95411 7.16862V7.10775C2.71777 7.47309 3.60586 7.70141 4.54708 7.73182C3.00194 6.84892 1.98965 5.34196 1.98965 3.63708C1.98965 2.72377 2.27376 1.88656 2.77107 1.15589C5.59496 4.13941 9.83967 6.0878 14.5994 6.30095C14.5106 5.93562 14.4573 5.5551 14.4573 5.17454C14.4573 2.46499 17.0148 0.257812 20.1938 0.257812C21.8455 0.257812 23.3374 0.851471 24.3852 1.81046C25.6817 1.59736 26.9249 1.18635 28.0261 0.623145C27.5998 1.76482 26.694 2.72382 25.5041 3.33266C26.6586 3.22615 27.7774 2.9521 28.8075 2.57158C28.0262 3.54575 27.0493 4.41338 25.9304 5.11363Z" fill="white"/>
</svg>
