<svg width="23" height="18" viewBox="0 0 23 18" fill="none" xmlns="http://www.w3.org/2000/svg">
<path d="M19.4793 2.0218C19.4731 2.00993 19.463 2.00062 19.4506 1.99556C18.0216 1.3399 16.5136 0.872373 14.9643 0.604662C14.9502 0.602046 14.9357 0.603933 14.9227 0.610057C14.9098 0.616181 14.8991 0.62623 14.8922 0.638773C14.6868 1.01148 14.5004 1.3943 14.3337 1.7858C12.6636 1.53228 10.9649 1.53228 9.2948 1.7858C9.12693 1.39331 8.93753 1.01039 8.72747 0.638773C8.72027 0.626502 8.70953 0.616685 8.69667 0.610601C8.6838 0.604517 8.66941 0.602448 8.65535 0.604662C7.10589 0.871811 5.59776 1.33938 4.16892 1.9956C4.15669 2.00078 4.14637 2.00963 4.13938 2.02093C1.28199 6.28808 0.499237 10.4503 0.883227 14.561C0.884307 14.5711 0.887402 14.5808 0.892328 14.5897C0.897255 14.5985 0.903911 14.6063 0.911902 14.6125C2.57574 15.8445 4.43676 16.7848 6.41555 17.3935C6.42948 17.3976 6.44436 17.3975 6.45819 17.3929C6.47201 17.3884 6.48412 17.3797 6.49288 17.3681C6.91788 16.7898 7.29446 16.1775 7.61879 15.5373C7.62325 15.5285 7.6258 15.5189 7.62626 15.5091C7.62672 15.4992 7.6251 15.4894 7.62149 15.4802C7.61788 15.4711 7.61237 15.4628 7.60532 15.4559C7.59827 15.449 7.58985 15.4437 7.5806 15.4403C6.98675 15.2131 6.41185 14.9392 5.86126 14.6212C5.85126 14.6153 5.84286 14.607 5.83681 14.5971C5.83075 14.5872 5.82722 14.576 5.82654 14.5644C5.82585 14.5528 5.82803 14.5413 5.83288 14.5307C5.83772 14.5202 5.84509 14.511 5.85433 14.504C5.96986 14.4174 6.08546 14.3274 6.19577 14.2365C6.20558 14.2284 6.21744 14.2232 6.23002 14.2215C6.2426 14.2198 6.25541 14.2217 6.267 14.2269C9.87408 15.8731 13.7792 15.8731 17.3436 14.2269C17.3552 14.2213 17.3682 14.2192 17.381 14.2208C17.3937 14.2223 17.4058 14.2275 17.4157 14.2356C17.5261 14.3265 17.6417 14.4174 17.7581 14.504C17.7673 14.5109 17.7748 14.5201 17.7797 14.5306C17.7846 14.5411 17.7869 14.5526 17.7863 14.5642C17.7857 14.5758 17.7822 14.587 17.7763 14.597C17.7703 14.6069 17.7619 14.6152 17.752 14.6212C17.2027 14.9419 16.6272 15.2156 16.0318 15.4394C16.0226 15.443 16.0142 15.4484 16.0072 15.4554C16.0002 15.4624 15.9947 15.4708 15.9912 15.48C15.9876 15.4892 15.9861 15.4991 15.9866 15.509C15.9872 15.5189 15.9898 15.5285 15.9943 15.5373C16.3241 16.1739 16.7001 16.7855 17.1194 17.3671C17.1279 17.379 17.14 17.388 17.1538 17.3927C17.1677 17.3974 17.1827 17.3976 17.1967 17.3934C19.1791 16.7868 21.0433 15.8463 22.7093 14.6125C22.7174 14.6066 22.7241 14.599 22.7291 14.5903C22.734 14.5816 22.737 14.5719 22.7379 14.5619C23.1976 9.80948 21.9683 5.68136 19.4793 2.0218ZM8.15748 12.058C7.07148 12.058 6.17666 11.0614 6.17666 9.83748C6.17666 8.61354 7.05413 7.61687 8.15748 7.61687C9.26946 7.61687 10.1556 8.6222 10.1383 9.8374C10.1383 11.0614 9.26076 12.058 8.15748 12.058ZM15.4812 12.058C14.3952 12.058 13.5004 11.0614 13.5004 9.83748C13.5004 8.61354 14.3779 7.61687 15.4812 7.61687C16.5932 7.61687 17.4794 8.6222 17.462 9.8374C17.462 11.0614 16.5932 12.058 15.4812 12.058Z" fill="white"/>
</svg>
